<?xml version="1.0"?><!DOCTYPE svg  PUBLIC '-//W3C//DTD SVG 1.1//EN'  'http://www.w3.org/Graphics/SVG/1.1/DTD/svg11.dtd'><svg height="8.4666mm" style="shape-rendering:geometricPrecision; text-rendering:geometricPrecision; image-rendering:optimizeQuality; fill-rule:evenodd; clip-rule:evenodd" version="1.1" viewBox="0 0 846.66 846.66" width="8.4666mm" xml:space="preserve" xmlns="http://www.w3.org/2000/svg" xmlns:xlink="http://www.w3.org/1999/xlink"><defs><style type="text/css">
   <![CDATA[
    .fil0 {fill:black;fill-rule:nonzero}
   ]]>
  </style></defs><g id="Layer_x0020_1"><path class="fil0" d="M293.76 130.09l259.14 0 0 -100.01c0,-11.43 9.27,-20.71 20.71,-20.71l119.84 0c11.43,0 20.71,9.28 20.71,20.71l0 100.01 51.57 0c11.44,0 20.71,9.27 20.71,20.71 0,221.92 0,443.85 0,665.78 0,11.43 -9.27,20.71 -20.71,20.71l-684.8 0c-11.44,0 -20.71,-9.28 -20.71,-20.71 0,-221.93 0,-443.86 0,-665.78 0,-11.44 9.27,-20.71 20.71,-20.71l51.58 0 0 -100.01c0,-11.43 9.27,-20.71 20.7,-20.71l119.85 0c11.43,0 20.7,9.28 20.7,20.71l0 100.01zm-192.12 204.12l643.39 0 0 -33.99 -643.39 0 0 33.99zm643.39 41.41l-643.39 0 0 420.25 643.39 0 0 -420.25zm-643.39 -116.82l643.39 0 0 -87.29 -30.87 0 0 34.45c0,11.44 -9.28,20.71 -20.71,20.71l-119.84 0c-11.44,0 -20.71,-9.27 -20.71,-20.71l0 -34.45 -259.14 0 0 34.45c0,11.44 -9.27,20.71 -20.7,20.71l-119.85 0c-11.43,0 -20.7,-9.27 -20.7,-20.71l0 -34.45 -30.87 0 0 87.29zm59.18 369.67l74.19 0c11.43,0 20.71,9.27 20.71,20.71l0 74.19c0,11.43 -9.28,20.7 -20.71,20.7l-74.19 0c-11.43,0 -20.71,-9.27 -20.71,-20.7l0 -74.19c0,-11.44 9.28,-20.71 20.71,-20.71zm53.48 41.42l-32.77 0 0 32.77 32.77 0 0 -32.77zm397.35 -41.42l74.19 0c11.43,0 20.71,9.27 20.71,20.71l0 74.19c0,11.43 -9.28,20.7 -20.71,20.7l-74.19 0c-11.43,0 -20.71,-9.27 -20.71,-20.7l0 -74.19c0,-11.44 9.28,-20.71 20.71,-20.71zm53.48 41.42l-32.77 0 0 32.77 32.77 0 0 -32.77zm-203.76 -41.42l74.19 0c11.44,0 20.71,9.27 20.71,20.71l0 74.19c0,11.43 -9.27,20.7 -20.71,20.7l-74.19 0c-11.43,0 -20.7,-9.27 -20.7,-20.7l0 -74.19c0,-11.44 9.27,-20.71 20.7,-20.71zm53.48 41.42l-32.77 0 0 32.77 32.77 0 0 -32.77zm-203.75 -41.42l74.18 0c11.44,0 20.71,9.27 20.71,20.71l0 74.19c0,11.43 -9.27,20.7 -20.71,20.7l-74.18 0c-11.44,0 -20.71,-9.27 -20.71,-20.7l0 -74.19c0,-11.44 9.27,-20.71 20.71,-20.71zm53.47 41.42l-32.76 0 0 32.77 32.76 0 0 -32.77zm-203.75 -195.5l74.19 0c11.43,0 20.71,9.27 20.71,20.71l0 74.18c0,11.44 -9.28,20.71 -20.71,20.71l-74.19 0c-11.43,0 -20.71,-9.27 -20.71,-20.71l0 -74.18c0,-11.44 9.28,-20.71 20.71,-20.71zm53.48 41.42l-32.77 0 0 32.77 32.77 0 0 -32.77zm397.35 -41.42l74.19 0c11.43,0 20.71,9.27 20.71,20.71l0 74.18c0,11.44 -9.28,20.71 -20.71,20.71l-74.19 0c-11.43,0 -20.71,-9.27 -20.71,-20.71l0 -74.18c0,-11.44 9.28,-20.71 20.71,-20.71zm53.48 41.42l-32.77 0 0 32.77 32.77 0 0 -32.77zm-203.76 -41.42l74.19 0c11.44,0 20.71,9.27 20.71,20.71l0 74.18c0,11.44 -9.27,20.71 -20.71,20.71l-74.19 0c-11.43,0 -20.7,-9.27 -20.7,-20.71l0 -74.18c0,-11.44 9.27,-20.71 20.7,-20.71zm53.48 41.42l-32.77 0 0 32.77 32.77 0 0 -32.77zm-203.75 -41.42l74.18 0c11.44,0 20.71,9.27 20.71,20.71l0 74.18c0,11.44 -9.27,20.71 -20.71,20.71l-74.18 0c-11.44,0 -20.71,-9.27 -20.71,-20.71l0 -74.18c0,-11.44 9.27,-20.71 20.71,-20.71zm53.47 41.42l-32.76 0 0 32.77 32.76 0 0 -32.77zm-112.22 -465.02l-78.43 0 0 134.46 78.43 0 0 -134.46zm420.39 0l-78.42 0 0 134.46 78.42 0 0 -134.46z"/></g></svg>