<?xml version="1.0"?><svg xmlns="http://www.w3.org/2000/svg" xmlns:xlink="http://www.w3.org/1999/xlink" version="1.1" viewBox="0 0 24 24" style="enable-background:new 0 0 24 24;" xml:space="preserve"><g id="Layer_1"/><g id="Layer_2"><g><path d="M21.78,9.88c0,0.51-0.2,1.02-0.59,1.41s-0.9,0.59-1.41,0.59c-0.51,0-1.03-0.2-1.42-0.59l-2.12-2.12l-7.07,7.07l2.12,2.12    c0.38,0.38,0.59,0.88,0.59,1.42c0,0.53-0.21,1.03-0.59,1.41c-0.39,0.39-0.9,0.59-1.41,0.59s-1.03-0.2-1.42-0.59    c-0.38,0.39-0.9,0.59-1.41,0.59s-1.02-0.2-1.41-0.59l-1.42-1.41l-1.41-1.42c-0.78-0.78-0.78-2.04,0-2.82    c-0.78-0.78-0.78-2.05,0-2.83c0.78-0.78,2.05-0.78,2.83,0l2.12,2.12L14.83,7.76l-2.12-2.12c-0.38-0.38-0.59-0.88-0.59-1.42    c0-0.53,0.21-1.03,0.59-1.41c0.39-0.39,0.9-0.59,1.41-0.59c0.52,0,1.03,0.2,1.42,0.59c0.77-0.78,2.04-0.78,2.82,0l1.42,1.41    l1.41,1.42c0.78,0.78,0.78,2.04,0,2.8199C21.58,8.85,21.78,9.36,21.78,9.88z"/></g></g></svg>